<svg width="291" height="52" viewBox="0 0 291 52" fill="none" xmlns="http://www.w3.org/2000/svg">
<path d="M26 32.25C29.4518 32.25 32.25 29.4518 32.25 26C32.25 22.5482 29.4518 19.75 26 19.75C22.5482 19.75 19.75 22.5482 19.75 26C19.75 29.4518 22.5482 32.25 26 32.25Z" stroke="#3498DB" stroke-width="5" stroke-linecap="round" stroke-linejoin="round"/>
<path d="M41.4167 32.25C41.1394 32.8784 41.0567 33.5754 41.1792 34.2512C41.3017 34.9271 41.6239 35.5507 42.1042 36.0417L42.2292 36.1667C42.6166 36.5536 42.9239 37.0132 43.1336 37.519C43.3433 38.0248 43.4512 38.567 43.4512 39.1146C43.4512 39.6622 43.3433 40.2044 43.1336 40.7102C42.9239 41.216 42.6166 41.6755 42.2292 42.0625C41.8422 42.4499 41.3827 42.7572 40.8769 42.9669C40.371 43.1766 39.8289 43.2845 39.2813 43.2845C38.7337 43.2845 38.1915 43.1766 37.6857 42.9669C37.1799 42.7572 36.7203 42.4499 36.3334 42.0625L36.2084 41.9375C35.7174 41.4572 35.0938 41.135 34.4179 41.0125C33.7421 40.89 33.0451 40.9727 32.4167 41.25C31.8005 41.5141 31.275 41.9526 30.9048 42.5115C30.5347 43.0705 30.336 43.7255 30.3334 44.3958V44.75C30.3334 45.8551 29.8944 46.9149 29.113 47.6963C28.3316 48.4777 27.2718 48.9167 26.1667 48.9167C25.0616 48.9167 24.0018 48.4777 23.2204 47.6963C22.439 46.9149 22 45.8551 22 44.75V44.5625C21.9839 43.8729 21.7607 43.2042 21.3594 42.6431C20.9582 42.0821 20.3974 41.6548 19.75 41.4167C19.1217 41.1394 18.4246 41.0566 17.7488 41.1792C17.073 41.3017 16.4494 41.6239 15.9584 42.1042L15.8334 42.2292C15.4464 42.6166 14.9869 42.9239 14.481 43.1336C13.9752 43.3433 13.433 43.4512 12.8855 43.4512C12.3379 43.4512 11.7957 43.3433 11.2899 43.1336C10.784 42.9239 10.3245 42.6166 9.93754 42.2292C9.55014 41.8422 9.24281 41.3827 9.03312 40.8768C8.82344 40.371 8.71551 39.8288 8.71551 39.2813C8.71551 38.7337 8.82344 38.1915 9.03312 37.6857C9.24281 37.1798 9.55014 36.7203 9.93754 36.3333L10.0625 36.2083C10.5428 35.7173 10.865 35.0937 10.9875 34.4179C11.1101 33.7421 11.0274 33.045 10.75 32.4167C10.486 31.8005 10.0474 31.275 9.48851 30.9048C8.92957 30.5347 8.2746 30.336 7.60421 30.3333H7.25004C6.14497 30.3333 5.08516 29.8944 4.30376 29.113C3.52236 28.3316 3.08337 27.2717 3.08337 26.1667C3.08337 25.0616 3.52236 24.0018 4.30376 23.2204C5.08516 22.439 6.14497 22 7.25004 22H7.43754C8.12711 21.9839 8.79588 21.7607 9.35691 21.3594C9.91794 20.9581 10.3453 20.3974 10.5834 19.75C10.8607 19.1216 10.9434 18.4246 10.8209 17.7488C10.6983 17.073 10.3762 16.4493 9.89587 15.9583L9.77087 15.8333C9.38347 15.4464 9.07614 14.9868 8.86646 14.481C8.65677 13.9752 8.54885 13.433 8.54885 12.8854C8.54885 12.3379 8.65677 11.7957 8.86646 11.2898C9.07614 10.784 9.38347 10.3245 9.77087 9.93751C10.1578 9.55011 10.6174 9.24278 11.1232 9.03309C11.629 8.82341 12.1712 8.71548 12.7188 8.71548C13.2664 8.71548 13.8085 8.82341 14.3144 9.03309C14.8202 9.24278 15.2797 9.55011 15.6667 9.93751L15.7917 10.0625C16.2827 10.5428 16.9063 10.865 17.5821 10.9875C18.258 11.1101 18.955 11.0273 19.5834 10.75H19.75C20.3662 10.4859 20.8917 10.0474 21.2619 9.48848C21.6321 8.92954 21.8307 8.27457 21.8334 7.60418V7.25001C21.8334 6.14494 22.2724 5.08513 23.0538 4.30373C23.8352 3.52233 24.895 3.08334 26 3.08334C27.1051 3.08334 28.1649 3.52233 28.9463 4.30373C29.7277 5.08513 30.1667 6.14494 30.1667 7.25001V7.43751C30.1694 8.1079 30.368 8.76288 30.7382 9.32181C31.1083 9.88075 31.6339 10.3193 32.25 10.5833C32.8784 10.8607 33.5754 10.9434 34.2513 10.8209C34.9271 10.6983 35.5507 10.3761 36.0417 9.89584L36.1667 9.77084C36.5537 9.38344 37.0132 9.07611 37.519 8.86643C38.0249 8.65674 38.5671 8.54882 39.1146 8.54882C39.6622 8.54882 40.2044 8.65674 40.7102 8.86643C41.216 9.07611 41.6756 9.38344 42.0625 9.77084C42.4499 10.1578 42.7573 10.6174 42.967 11.1232C43.1766 11.629 43.2846 12.1712 43.2846 12.7188C43.2846 13.2663 43.1766 13.8085 42.967 14.3143C42.7573 14.8202 42.4499 15.2797 42.0625 15.6667L41.9375 15.7917C41.4573 16.2827 41.1351 16.9063 41.0125 17.5821C40.89 18.2579 40.9727 18.955 41.25 19.5833V19.75C41.5141 20.3662 41.9526 20.8917 42.5116 21.2619C43.0705 21.632 43.7255 21.8307 44.3959 21.8333H44.75C45.8551 21.8333 46.9149 22.2723 47.6963 23.0537C48.4777 23.8351 48.9167 24.8949 48.9167 26C48.9167 27.1051 48.4777 28.1649 47.6963 28.9463C46.9149 29.7277 45.8551 30.1667 44.75 30.1667H44.5625C43.8922 30.1693 43.2372 30.368 42.6782 30.7381C42.1193 31.1083 41.6808 31.6338 41.4167 32.25V32.25Z" stroke="#3498DB" stroke-width="5" stroke-linecap="round" stroke-linejoin="round"/>
<path d="M93.4678 26.0918C93.4678 27.541 93.1875 28.9082 92.627 30.1934C92.0801 31.4648 91.3281 32.5791 90.3711 33.5361C89.4277 34.4795 88.3203 35.2246 87.0488 35.7715C85.7773 36.3184 84.417 36.5918 82.9678 36.5918H66.0898V32.4492H82.9678C83.8428 32.4492 84.6631 32.2852 85.4287 31.957C86.1943 31.6152 86.8574 31.1572 87.418 30.583C87.9922 30.0088 88.4434 29.3389 88.7715 28.5732C89.0996 27.7939 89.2637 26.9668 89.2637 26.0918C89.2637 25.2168 89.0996 24.3965 88.7715 23.6309C88.4434 22.8652 87.9922 22.2021 87.418 21.6416C86.8574 21.0674 86.1943 20.6162 85.4287 20.2881C84.6631 19.96 83.8428 19.7959 82.9678 19.7959H63.7314V45H59.5273V15.5918H82.9678C84.417 15.5918 85.7773 15.8721 87.0488 16.4326C88.3203 16.9795 89.4277 17.7314 90.3711 18.6885C91.3281 19.6318 92.0801 20.7393 92.627 22.0107C93.1875 23.2822 93.4678 24.6426 93.4678 26.0918ZM122.477 26.0918H106.727C106.289 26.0918 105.879 26.1807 105.496 26.3584C105.113 26.5225 104.778 26.748 104.491 27.0352C104.204 27.3223 103.979 27.6572 103.814 28.04C103.65 28.4229 103.568 28.8262 103.568 29.25V45H99.3643V29.25C99.3643 28.2246 99.5557 27.2676 99.9385 26.3789C100.321 25.4902 100.848 24.7178 101.518 24.0615C102.188 23.3916 102.967 22.8652 103.855 22.4824C104.744 22.0996 105.701 21.9082 106.727 21.9082H122.477V26.0918ZM155.505 33.4541C155.505 35.04 155.204 36.5303 154.603 37.9248C154.001 39.3193 153.181 40.543 152.142 41.5957C151.116 42.6348 149.906 43.4619 148.512 44.0771C147.117 44.6787 145.627 44.9863 144.041 45H137.581C135.995 44.9863 134.505 44.6787 133.11 44.0771C131.716 43.4619 130.499 42.6348 129.46 41.5957C128.435 40.543 127.621 39.3193 127.02 37.9248C126.418 36.5303 126.117 35.04 126.117 33.4541C126.117 31.8682 126.418 30.3779 127.02 28.9834C127.621 27.5752 128.435 26.3516 129.46 25.3125C130.499 24.2598 131.716 23.4326 133.11 22.8311C134.505 22.2158 135.995 21.9082 137.581 21.9082H144.041C145.094 21.9082 146.112 22.0449 147.097 22.3184C148.081 22.5918 148.997 22.9814 149.845 23.4873C150.692 23.9932 151.465 24.6016 152.162 25.3125C152.859 26.0098 153.454 26.7891 153.946 27.6504C154.438 28.498 154.821 29.4141 155.095 30.3984C155.368 31.3828 155.505 32.4014 155.505 33.4541ZM151.321 33.4541C151.321 32.4424 151.13 31.4922 150.747 30.6035C150.364 29.7148 149.845 28.9424 149.188 28.2861C148.532 27.6162 147.76 27.0898 146.871 26.707C145.996 26.3105 145.053 26.1055 144.041 26.0918H137.581C136.569 26.1055 135.619 26.3105 134.73 26.707C133.855 27.0898 133.09 27.6162 132.434 28.2861C131.777 28.9424 131.258 29.7148 130.875 30.6035C130.506 31.4922 130.321 32.4424 130.321 33.4541C130.321 34.4658 130.506 35.416 130.875 36.3047C131.258 37.1934 131.777 37.9727 132.434 38.6426C133.09 39.2988 133.855 39.8252 134.73 40.2217C135.619 40.6045 136.569 40.7959 137.581 40.7959H144.041C145.053 40.7959 145.996 40.6045 146.871 40.2217C147.76 39.8252 148.532 39.2988 149.188 38.6426C149.845 37.9727 150.364 37.1934 150.747 36.3047C151.13 35.416 151.321 34.4658 151.321 33.4541ZM187.979 26.0918L167.738 40.7959H187.979V45H160.684V40.7959L180.884 26.0918H160.684V21.9082H187.979V26.0918ZM221.5 29.25C221.5 30.2754 221.309 31.2324 220.926 32.1211C220.543 33.0098 220.017 33.7891 219.347 34.459C218.69 35.1152 217.911 35.6348 217.009 36.0176C216.12 36.4004 215.17 36.5918 214.158 36.5918H198.06C198.36 37.207 198.736 37.7744 199.188 38.2939C199.639 38.8135 200.145 39.2578 200.705 39.627C201.266 39.9961 201.874 40.2832 202.53 40.4883C203.2 40.6934 203.897 40.7959 204.622 40.7959H218.362V45H204.622C203.036 44.9863 201.546 44.6787 200.151 44.0771C198.757 43.4619 197.54 42.6348 196.501 41.5957C195.476 40.543 194.662 39.3193 194.061 37.9248C193.459 36.5303 193.158 35.04 193.158 33.4541C193.158 31.8682 193.459 30.3779 194.061 28.9834C194.662 27.5889 195.476 26.3721 196.501 25.333C197.54 24.2803 198.757 23.4531 200.151 22.8516C201.546 22.2363 203.036 21.9219 204.622 21.9082H214.158C215.17 21.9082 216.12 22.0996 217.009 22.4824C217.911 22.8652 218.69 23.3916 219.347 24.0615C220.017 24.7178 220.543 25.4902 220.926 26.3789C221.309 27.2676 221.5 28.2246 221.5 29.25ZM214.158 32.4082C214.582 32.4082 214.985 32.3262 215.368 32.1621C215.751 31.998 216.086 31.7725 216.373 31.4854C216.66 31.1982 216.886 30.8633 217.05 30.4805C217.214 30.0977 217.296 29.6875 217.296 29.25C217.296 28.8262 217.214 28.4229 217.05 28.04C216.886 27.6572 216.66 27.3223 216.373 27.0352C216.086 26.748 215.751 26.5225 215.368 26.3584C214.985 26.1807 214.582 26.0918 214.158 26.0918H204.622C203.692 26.0918 202.817 26.2559 201.997 26.584C201.19 26.9121 200.466 27.3633 199.823 27.9375C199.194 28.498 198.668 29.168 198.244 29.9473C197.834 30.7129 197.567 31.5332 197.444 32.4082H214.158ZM251.739 37.6582C251.739 38.6699 251.548 39.627 251.165 40.5293C250.782 41.418 250.256 42.1973 249.586 42.8672C248.93 43.5234 248.15 44.043 247.248 44.4258C246.359 44.8086 245.409 45 244.397 45H226.535V40.7959H244.397C244.821 40.7959 245.225 40.7139 245.607 40.5498C245.99 40.3857 246.325 40.1602 246.612 39.873C246.899 39.5859 247.125 39.2578 247.289 38.8887C247.453 38.5059 247.535 38.0957 247.535 37.6582C247.535 37.2344 247.453 36.8311 247.289 36.4482C247.125 36.0654 246.899 35.7305 246.612 35.4434C246.325 35.1562 245.99 34.9307 245.607 34.7666C245.225 34.5889 244.821 34.5 244.397 34.5H232.831C231.956 34.5 231.136 34.3359 230.37 34.0078C229.604 33.6797 228.935 33.2354 228.36 32.6748C227.8 32.1006 227.355 31.4307 227.027 30.665C226.699 29.8994 226.535 29.0791 226.535 28.2041C226.535 27.3291 226.699 26.5088 227.027 25.7432C227.355 24.9775 227.8 24.3145 228.36 23.7539C228.935 23.1797 229.604 22.7285 230.37 22.4004C231.136 22.0723 231.956 21.9082 232.831 21.9082H249.647V26.0918H232.831C232.243 26.0918 231.744 26.2969 231.334 26.707C230.938 27.1035 230.739 27.6025 230.739 28.2041C230.739 28.792 230.938 29.291 231.334 29.7012C231.744 30.0977 232.243 30.2959 232.831 30.2959H244.397C245.409 30.2959 246.359 30.4873 247.248 30.8701C248.15 31.2529 248.93 31.7793 249.586 32.4492C250.256 33.1191 250.782 33.8984 251.165 34.7871C251.548 35.6758 251.739 36.6328 251.739 37.6582ZM282.163 37.6582C282.163 38.6699 281.972 39.627 281.589 40.5293C281.206 41.418 280.68 42.1973 280.01 42.8672C279.354 43.5234 278.574 44.043 277.672 44.4258C276.783 44.8086 275.833 45 274.821 45H256.959V40.7959H274.821C275.245 40.7959 275.648 40.7139 276.031 40.5498C276.414 40.3857 276.749 40.1602 277.036 39.873C277.323 39.5859 277.549 39.2578 277.713 38.8887C277.877 38.5059 277.959 38.0957 277.959 37.6582C277.959 37.2344 277.877 36.8311 277.713 36.4482C277.549 36.0654 277.323 35.7305 277.036 35.4434C276.749 35.1562 276.414 34.9307 276.031 34.7666C275.648 34.5889 275.245 34.5 274.821 34.5H263.255C262.38 34.5 261.56 34.3359 260.794 34.0078C260.028 33.6797 259.358 33.2354 258.784 32.6748C258.224 32.1006 257.779 31.4307 257.451 30.665C257.123 29.8994 256.959 29.0791 256.959 28.2041C256.959 27.3291 257.123 26.5088 257.451 25.7432C257.779 24.9775 258.224 24.3145 258.784 23.7539C259.358 23.1797 260.028 22.7285 260.794 22.4004C261.56 22.0723 262.38 21.9082 263.255 21.9082H280.071V26.0918H263.255C262.667 26.0918 262.168 26.2969 261.758 26.707C261.361 27.1035 261.163 27.6025 261.163 28.2041C261.163 28.792 261.361 29.291 261.758 29.7012C262.168 30.0977 262.667 30.2959 263.255 30.2959H274.821C275.833 30.2959 276.783 30.4873 277.672 30.8701C278.574 31.2529 279.354 31.7793 280.01 32.4492C280.68 33.1191 281.206 33.8984 281.589 34.7871C281.972 35.6758 282.163 36.6328 282.163 37.6582Z" fill="#3498DB"/>
</svg>
